<svg xmlns="http://www.w3.org/2000/svg" width="752" height="153" viewBox="0 0 752 153">
<g id="Page-1" fill="none" fill-rule="evenodd" stroke="none" stroke-width="1">
<g id="logotype" fill="#FFF">
<g id="wordmark" transform="translate(193)">
<path id="c" d="M37.376 57.236a20.365 20.365 0 0 1 3.308-.268 20.288 20.288 0 0 1 14.912 6.507c.182.003.365.004.548.004 9.115 0 16.83-2.998 19.416-7.13a40.852 40.852 0 0 0-11.65-12.448 40.492 40.492 0 0 0-23.226-7.279C18.214 36.622 0 54.841 0 77.314s18.215 40.691 40.684 40.691c12.56 0 23.79-5.692 31.253-14.637l-.036-.017a40.81 40.81 0 0 0 3.66-5.133c-2.588-4.132-10.302-7.13-19.417-7.13-.183 0-.366.002-.548.004A20.285 20.285 0 0 1 40.684 97.6c-1.126 0-2.232-.091-3.308-.268a.124.124 0 0 0-.027.056c-9.648-1.591-17.007-9.973-17.007-20.073 0-10.11 7.373-18.498 17.034-20.078z"></path>
<path id="o" d="M122.052 36.622c22.47 0 40.685 18.219 40.685 40.692s-18.215 40.691-40.685 40.691c-22.469 0-40.684-18.218-40.684-40.691 0-22.473 18.215-40.692 40.684-40.692zm0 20.346c-11.234 0-20.342 9.11-20.342 20.346s9.108 20.346 20.342 20.346c11.235 0 20.342-9.11 20.342-20.346 0-11.237-9.107-20.346-20.342-20.346z"></path>
<path id="d" d="M231.76 111.658a40.488 40.488 0 0 1-21.83 6.347c-22.47 0-40.684-18.218-40.684-40.691 0-22.473 18.215-40.692 40.684-40.692 7.41 0 14.358 1.982 20.342 5.444V10.58h.016a5.188 5.188 0 0 1-.016-.407C230.272 4.555 239.38 0 250.614 0v118.005c-8.529 0-15.831-2.625-18.854-6.347zM209.93 97.66c11.235 0 20.342-9.11 20.342-20.346 0-11.237-9.107-20.346-20.342-20.346-11.234 0-20.342 9.11-20.342 20.346s9.108 20.346 20.342 20.346z"></path>
<path id="e" d="M341.613 74.122c.008.114.012.229.012.343 0 5.598-9.042 10.14-20.22 10.173h-39.326c2.94 7.618 10.33 13.022 18.984 13.022 2.593 0 5.073-.486 7.354-1.37a20.375 20.375 0 0 0 7.557-5.137c.183-.003.365-.004.549-.004 9.114 0 16.829 2.998 19.416 7.13a40.88 40.88 0 0 1-7.372 9.02c-7.242 6.648-16.9 10.706-27.504 10.706-22.47 0-40.685-18.218-40.685-40.691 0-22.473 18.215-40.692 40.685-40.692 21.393 0 38.93 16.516 40.56 37.495l-.01.005zm-58.823-5.76h36.545c-3.311-6.749-10.25-11.394-18.272-11.394-8.023 0-14.961 4.645-18.273 11.394z"></path>
<path id="p" d="M371.853 42.066a40.491 40.491 0 0 1 20.342-5.444c22.47 0 40.684 18.219 40.684 40.692s-18.215 40.691-40.684 40.691a40.491 40.491 0 0 1-20.342-5.443V153c-11.235 0-20.342-4.555-20.342-10.173 0-.136.005-.272.016-.407h-.016V47.202h.016a5.188 5.188 0 0 1-.016-.407c0-5.618 9.107-10.173 20.342-10.173v5.444zm18.715 55.594c11.234 0 20.342-9.11 20.342-20.346 0-11.237-9.108-20.346-20.342-20.346-11.235 0-20.342 9.11-20.342 20.346s9.107 20.346 20.342 20.346z"></path>
<path id="i" d="M462.985 36.622v79.901c-3.082.94-6.703 1.482-10.577 1.482-3.539 0-6.866-.451-9.765-1.246V47.202h.016a5.188 5.188 0 0 1-.016-.407c0-5.618 9.108-10.173 20.342-10.173zM452.815 0c6.965 0 12.611 5.648 12.611 12.614 0 6.967-5.646 12.615-12.612 12.615-6.965 0-12.612-5.648-12.612-12.615C440.202 5.648 445.85 0 452.814 0z"></path>
<path id="p" d="M497.974 42.066a40.491 40.491 0 0 1 20.342-5.444c22.47 0 40.684 18.219 40.684 40.692s-18.215 40.691-40.684 40.691a40.491 40.491 0 0 1-20.342-5.443V153c-11.235 0-20.342-4.555-20.342-10.173 0-.136.005-.272.016-.407h-.016V47.202h.016a5.188 5.188 0 0 1-.016-.407c0-5.618 9.107-10.173 20.342-10.173v5.444zm19.528 55.594c11.235 0 20.342-9.11 20.342-20.346 0-11.237-9.107-20.346-20.342-20.346-11.234 0-20.342 9.11-20.342 20.346s9.108 20.346 20.342 20.346z"></path>
</g>
<g id="symbol">
<path id="Combined-Shape" fill-opacity=".7" d="M109.533 13.683l29.784 29.784c18.244 18.244 18.244 47.823 0 66.067l-29.783 29.783c-18.244 18.244-47.823 18.244-66.067 0l-29.784-29.784c-18.244-18.244-18.244-47.823 0-66.067l29.783-29.783c18.244-18.244 47.823-18.244 66.067 0zM76.43 53.839c-12.478 0-22.592 10.114-22.592 22.592 0 12.477 10.114 22.592 22.592 22.592 12.477 0 22.592-10.115 22.592-22.592 0-12.478-10.115-22.592-22.592-22.592z"></path>
<path id="Combined-Shape" d="M76.5 0v53.84h-.07c-12.476 0-22.59 10.114-22.59 22.59 0 12.476 10.114 22.59 22.59 22.59l.069-.002V153c-11.723 0-23.447-4.366-32.518-13.103l-.673-.661-29.644-29.71c-18.219-18.26-18.219-47.793 0-66.051l29.644-29.71C52.462 4.59 64.48 0 76.5 0z"></path>
</g>
</g>
</g>
</svg>